<?xml version="1.0" standalone="no"?>
<!DOCTYPE svg PUBLIC "-//W3C//DTD SVG 20010904//EN"
 "http://www.w3.org/TR/2001/REC-SVG-20010904/DTD/svg10.dtd">
<svg version="1.0" xmlns="http://www.w3.org/2000/svg"
 width="100.000000pt" height="100.000000pt" viewBox="0 0 100.000000 100.000000"
 preserveAspectRatio="xMidYMid meet">
<g transform="translate(0.000000,100.000000) scale(0.100000,-0.100000)"
fill="#000000" stroke="none">
<path d="M397 966 c-82 -30 -107 -74 -107 -191 0 -69 -3 -85 -15 -85 -8 0 -15
-7 -15 -15 0 -20 16 -19 39 4 19 19 19 19 25 -7 12 -50 17 -347 8 -392 l-10
-45 -1 43 c-1 26 -5 41 -11 37 -16 -10 -12 -182 5 -215 24 -45 75 -71 157 -77
136 -10 214 32 229 123 9 59 0 189 -12 159 -4 -11 -9 -33 -10 -50 -1 -22 -4
-17 -9 20 -10 63 -12 225 -4 331 l7 81 28 -16 c34 -19 53 -5 22 16 -21 14 -23
23 -23 104 0 88 -1 90 -35 128 -24 26 -49 42 -80 50 -59 15 -141 13 -188 -3z
m191 -151 c20 -9 47 -26 60 -38 19 -18 22 -28 17 -67 -12 -94 -11 -92 -55 -85
-51 9 -156 9 -217 0 l-49 -6 -11 68 c-10 64 -10 69 11 91 47 49 170 67 244 37z
m17 -300 l0 -60 -99 -3 c-64 -2 -103 1 -112 9 -14 12 -20 100 -7 113 4 3 54 5
112 4 l106 -3 0 -60z m35 -302 l0 -71 -45 -18 c-55 -21 -171 -15 -210 10 -23
15 -25 23 -25 84 l0 67 140 0 140 0 0 -72z"/>
</g>
</svg>
