<?xml version="1.0" encoding="UTF-8"?>
<svg width="62px" height="98px" viewBox="0 0 62 98" version="1.1" xmlns="http://www.w3.org/2000/svg" xmlns:xlink="http://www.w3.org/1999/xlink">
    <!-- Generator: Sketch 40 (33762) - http://www.bohemiancoding.com/sketch -->
    <title>Oval + Oval Copy + Oval Copy 2 + Oval Copy 3 + Path + Path Mask</title>
    <desc>Created with Sketch.</desc>
    <defs>
        <path d="M54,16 C54,7.2 46.8,0 38,0 L24,0 C15.2,0 8,7.2 8,16 L8,32.201 C3.436,33.128 0,37.163 0,42 L8,42 L8,82 C8,90.8 15.2,98 24,98 L38,98 C46.8,98 54,90.8 54,82 L54,42 L62,42 C62,37.163 58.564,33.127 54,32.201 L54,16 Z" id="path-1"></path>
        <linearGradient x1="50%" y1="0%" x2="50%" y2="100%" id="linearGradient-3">
            <stop stop-color="#F9FFF7" offset="0%"></stop>
            <stop stop-color="#878787" offset="100%"></stop>
        </linearGradient>
    </defs>
    <g id="Page-1" stroke="none" stroke-width="1" fill="none" fill-rule="evenodd">
        <g id="noun_386509_cc">
            <g id="Oval-+-Oval-Copy-+-Oval-Copy-2-+-Oval-Copy-3-+-Path-+-Path-Mask">
                <mask id="mask-2" fill="white">
                    <use xlink:href="#path-1"></use>
                </mask>
                <use id="Mask" fill="#000000" xlink:href="#path-1"></use>
                <path d="M17.6566277,8.89046058 C19.5896243,8.89046058 21.1566277,7.3234572 21.1566277,5.39046058 C21.1566277,3.45746395 23.0896243,0.279999971 21.1566277,0.279999971 C20.2774652,0.279999971 18.4275065,0.922812362 16.7386652,1.79636555 C15.8850089,2.23791928 15.262339,2.68211901 14.6824455,3.13710364 C14.4490896,3.3201948 14.1100046,3.57925583 13.8023796,3.84016761 C13.445256,4.14306164 13.1285737,4.44172973 13.0380974,4.52107581 C12.7669802,4.75884061 12.2999992,5.25289647 12.2999992,5.39046058 C12.2999992,7.3234572 15.723631,8.89046058 17.6566277,8.89046058 Z" id="Oval" fill="#D2D2D2" mask="url(#mask-2)" transform="translate(17.157868, 4.585230) rotate(0.900000) translate(-17.157868, -4.585230) "></path>
                <path d="M45.4162653,8.67786739 C47.3492619,8.67786739 48.9162653,7.11086401 48.9162653,5.17786739 C48.9162653,3.24487077 50.8492619,0.0674067867 48.9162653,0.0674067867 C48.0371029,0.0674067867 46.1871442,0.710219177 44.4983029,1.58377237 C43.6446466,2.0253261 43.0219766,2.46952583 42.4420832,2.92451046 C42.2087272,3.10760162 41.8696422,3.36666265 41.5620172,3.62757442 C41.2048936,3.93046846 40.8882113,4.22913655 40.797735,4.30848262 C40.5266179,4.54624742 40.0596369,5.04030329 40.0596369,5.17786739 C40.0596369,7.11086401 43.4832687,8.67786739 45.4162653,8.67786739 Z" id="Oval-Copy" fill="#D2D2D2" mask="url(#mask-2)" transform="translate(44.917506, 4.372637) scale(-1, 1) rotate(0.800000) translate(-44.917506, -4.372637) "></path>
                <path d="M45.3566284,97.7945849 C47.289625,97.7945849 48.8566284,96.2275815 48.8566284,94.2945849 C48.8566284,92.3615883 50.789625,89.1841243 48.8566284,89.1841243 C47.977466,89.1841243 46.1275073,89.8269367 44.438666,90.7004899 C43.5850097,91.1420436 42.9623398,91.5862433 42.3824463,92.0412279 C42.1490903,92.2243191 41.8100053,92.4833801 41.5023804,92.7442919 C41.1452567,93.0471859 40.8285745,93.345854 40.7380981,93.4252001 C40.466981,93.6629649 40,94.1570208 40,94.2945849 C40,96.2275815 43.4236318,97.7945849 45.3566284,97.7945849 Z" id="Oval-Copy-2" fill="#FF6A6A" mask="url(#mask-2)" transform="translate(44.857869, 93.489355) rotate(181.000000) translate(-44.857869, -93.489355) "></path>
                <path d="M17.5566292,97.7945849 C19.4896258,97.7945849 21.0566292,96.2275815 21.0566292,94.2945849 C21.0566292,92.3615883 22.9896258,89.1841243 21.0566292,89.1841243 C20.1774667,89.1841243 18.3275081,89.8269367 16.6386667,90.7004899 C15.7850105,91.1420436 15.1623405,91.5862433 14.5824471,92.0412279 C14.3490911,92.2243191 14.0100061,92.4833801 13.7023811,92.7442919 C13.3452575,93.0471859 13.0285752,93.345854 12.9380989,93.4252001 C12.6669818,93.6629649 12.2000008,94.1570208 12.2000008,94.2945849 C12.2000008,96.2275815 15.6236326,97.7945849 17.5566292,97.7945849 Z" id="Oval-Copy-3" fill="#FF6B6B" mask="url(#mask-2)" transform="translate(17.057870, 93.489355) scale(-1, 1) rotate(181.000000) translate(-17.057870, -93.489355) "></path>
                <path d="M31,85 C19,85 13,81 13,81 L17,69 C17,69 23,70 31,70 C39,70 45,69 45,69 L49,81 C49,81 43,85 31,85 L31,85 Z" id="Path" fill="url(#linearGradient-3)" mask="url(#mask-2)"></path>
                <path d="M45,42 C45,42 39,41 31,41 C23,41 17,42 17,42 L13,30 C13,30 19,26 31,26 C43,26 49,30 49,30 L45,42 L45,42 Z" id="Path" fill="url(#linearGradient-3)" mask="url(#mask-2)"></path>
            </g>
        </g>
    </g>
</svg>